<svg width="52" height="52" viewBox="0 0 52 52" fill="none" xmlns="http://www.w3.org/2000/svg">
<path d="M27.9244 50C27.9244 48.8954 27.0314 48 25.9298 48C24.8282 48 23.9352 48.8954 23.9352 50C23.9352 51.1046 24.8282 52 25.9298 52C27.0314 52 27.9244 51.1046 27.9244 50Z" fill="#131313"/>
<path d="M15.9568 50C15.9568 48.8954 15.0638 48 13.9622 48C12.8606 48 11.9676 48.8954 11.9676 50C11.9676 51.1046 12.8606 52 13.9622 52C15.0638 52 15.9568 51.1046 15.9568 50Z" fill="#131313"/>
<path d="M3.9892 50C3.9892 48.8954 3.09619 48 1.9946 48C0.893013 48 0 48.8954 0 50C0 51.1046 0.893013 52 1.9946 52C3.09619 52 3.9892 51.1046 3.9892 50Z" fill="#131313"/>
<path d="M3.9892 38C3.9892 36.8954 3.09619 36 1.9946 36C0.893013 36 0 36.8954 0 38C0 39.1046 0.893013 40 1.9946 40C3.09619 40 3.9892 39.1046 3.9892 38Z" fill="#131313"/>
<path d="M15.9568 38C15.9568 36.8954 15.0638 36 13.9622 36C12.8606 36 11.9676 36.8954 11.9676 38C11.9676 39.1046 12.8606 40 13.9622 40C15.0638 40 15.9568 39.1046 15.9568 38Z" fill="#131313"/>
<path d="M15.9568 26C15.9568 24.8954 15.0638 24 13.9622 24C12.8606 24 11.9676 24.8954 11.9676 26C11.9676 27.1046 12.8606 28 13.9622 28C15.0638 28 15.9568 27.1046 15.9568 26Z" fill="#131313"/>
<path d="M15.9568 14C15.9568 12.8954 15.0638 12 13.9622 12C12.8606 12 11.9676 12.8954 11.9676 14C11.9676 15.1046 12.8606 16 13.9622 16C15.0638 16 15.9568 15.1046 15.9568 14Z" fill="#131313"/>
<path d="M39.892 50C39.892 48.8954 38.999 48 37.8974 48C36.7958 48 35.9028 48.8954 35.9028 50C35.9028 51.1046 36.7958 52 37.8974 52C38.999 52 39.892 51.1046 39.892 50Z" fill="#131313"/>
<path d="M51.8596 50C51.8596 48.8954 50.9666 48 49.865 48C48.7634 48 47.8704 48.8954 47.8704 50C47.8704 51.1046 48.7634 52 49.865 52C50.9666 52 51.8596 51.1046 51.8596 50Z" fill="#131313"/>
<path d="M51.8596 38C51.8596 36.8954 50.9666 36 49.865 36C48.7634 36 47.8704 36.8954 47.8704 38C47.8704 39.1046 48.7634 40 49.865 40C50.9666 40 51.8596 39.1046 51.8596 38Z" fill="#131313"/>
<path d="M39.892 38C39.892 36.8954 38.999 36 37.8974 36C36.7958 36 35.9028 36.8954 35.9028 38C35.9028 39.1046 36.7958 40 37.8974 40C38.999 40 39.892 39.1046 39.892 38Z" fill="#131313"/>
<path d="M39.892 26C39.892 24.8954 38.999 24 37.8974 24C36.7958 24 35.9028 24.8954 35.9028 26C35.9028 27.1046 36.7958 28 37.8974 28C38.999 28 39.892 27.1046 39.892 26Z" fill="#131313"/>
<path d="M27.9244 26C27.9244 24.8954 27.0314 24 25.9298 24C24.8282 24 23.9352 24.8954 23.9352 26C23.9352 27.1046 24.8282 28 25.9298 28C27.0314 28 27.9244 27.1046 27.9244 26Z" fill="#131313"/>
<path d="M27.9244 14C27.9244 12.8954 27.0314 12 25.9298 12C24.8282 12 23.9352 12.8954 23.9352 14C23.9352 15.1046 24.8282 16 25.9298 16C27.0314 16 27.9244 15.1046 27.9244 14Z" fill="#131313"/>
<path d="M51.8596 26C51.8596 24.8954 50.9666 24 49.865 24C48.7634 24 47.8704 24.8954 47.8704 26C47.8704 27.1046 48.7634 28 49.865 28C50.9666 28 51.8596 27.1046 51.8596 26Z" fill="#131313"/>
<path d="M51.8596 14C51.8596 12.8954 50.9666 12 49.865 12C48.7634 12 47.8704 12.8954 47.8704 14C47.8704 15.1046 48.7634 16 49.865 16C50.9666 16 51.8596 15.1046 51.8596 14Z" fill="#131313"/>
<path d="M51.8596 2C51.8596 0.89543 50.9666 0 49.865 0C48.7634 0 47.8704 0.89543 47.8704 2C47.8704 3.10457 48.7634 4 49.865 4C50.9666 4 51.8596 3.10457 51.8596 2Z" fill="#131313"/>
<path d="M39.892 14C39.892 12.8954 38.999 12 37.8974 12C36.7958 12 35.9028 12.8954 35.9028 14C35.9028 15.1046 36.7958 16 37.8974 16C38.999 16 39.892 15.1046 39.892 14Z" fill="#131313"/>
<path d="M39.892 2C39.892 0.89543 38.999 0 37.8974 0C36.7958 0 35.9028 0.89543 35.9028 2C35.9028 3.10457 36.7958 4 37.8974 4C38.999 4 39.892 3.10457 39.892 2Z" fill="#131313"/>
<path d="M27.9244 38C27.9244 36.8954 27.0314 36 25.9298 36C24.8282 36 23.9352 36.8954 23.9352 38C23.9352 39.1046 24.8282 40 25.9298 40C27.0314 40 27.9244 39.1046 27.9244 38Z" fill="#131313"/>
</svg>
