<svg width="24" height="24" viewBox="0 0 21 20" fill="none" xmlns="http://www.w3.org/2000/svg">
<g clip-path="url(#clip0_71_109)">
<path d="M10.3279 1.66667C14.9104 1.66667 18.6387 5.405 18.6387 10C18.6387 14.595 14.9104 18.3333 10.3279 18.3333C5.74526 18.3333 2.01702 14.595 2.01702 10C2.01702 5.405 5.74526 1.66667 10.3279 1.66667ZM10.3279 0C4.82027 0 0.354858 4.4775 0.354858 10C0.354858 15.5225 4.82027 20 10.3279 20C15.8354 20 20.3009 15.5225 20.3009 10C20.3009 4.4775 15.8354 0 10.3279 0ZM8.66569 8.33333H7.00352V10H8.66569V15H11.1589V10H12.6715L12.8211 8.33333H11.1589V7.63917C11.1589 7.24083 11.2387 7.08333 11.6227 7.08333H12.8211V5H10.8232C9.32889 5 8.66569 5.66 8.66569 6.92333V8.33333Z" fill="#908246"/>
</g>
<defs>
<clipPath id="clip0_71_109">
<rect width="19.946" height="20" fill="white" transform="translate(0.354858)"/>
</clipPath>
</defs>
</svg>
