<svg width="24" height="24" viewBox="0 0 21 20" fill="none" xmlns="http://www.w3.org/2000/svg">
<g clip-path="url(#clip0_71_107)">
<path d="M10.9424 1.8025C13.6052 1.8025 13.921 1.8125 14.9731 1.86083C17.6758 1.98417 18.9382 3.27 19.0612 5.96C19.1094 7.01417 19.1186 7.33083 19.1186 10.0008C19.1186 12.6717 19.1086 12.9875 19.0612 14.0417C18.9374 16.7292 17.6783 18.0175 14.9731 18.1408C13.921 18.1892 13.6068 18.1992 10.9424 18.1992C8.27957 18.1992 7.96376 18.1892 6.91244 18.1408C4.20311 18.0167 2.94734 16.725 2.82434 14.0408C2.77614 12.9867 2.76616 12.6708 2.76616 10C2.76616 7.33 2.77697 7.01417 2.82434 5.95917C2.94817 3.27 4.20726 1.98333 6.91244 1.86C7.96459 1.8125 8.27957 1.8025 10.9424 1.8025ZM10.9424 0C8.23386 0 7.89478 0.0116667 6.83099 0.06C3.20913 0.226667 1.19625 2.24167 1.03003 5.87667C0.980996 6.94417 0.96936 7.28417 0.96936 10C0.96936 12.7158 0.980996 13.0567 1.0292 14.1233C1.19541 17.755 3.20497 19.7733 6.83016 19.94C7.89478 19.9883 8.23386 20 10.9424 20C13.6509 20 13.9908 19.9883 15.0546 19.94C18.6731 19.7733 20.691 17.7583 20.8547 14.1233C20.9037 13.0567 20.9154 12.7158 20.9154 10C20.9154 7.28417 20.9037 6.94417 20.8555 5.8775C20.6926 2.24917 18.6806 0.2275 15.0554 0.0608333C13.9908 0.0116667 13.6509 0 10.9424 0V0ZM10.9424 4.865C8.11418 4.865 5.82122 7.16417 5.82122 10C5.82122 12.8358 8.11418 15.1358 10.9424 15.1358C13.7705 15.1358 16.0635 12.8367 16.0635 10C16.0635 7.16417 13.7705 4.865 10.9424 4.865ZM10.9424 13.3333C9.1065 13.3333 7.61803 11.8417 7.61803 10C7.61803 8.15917 9.1065 6.66667 10.9424 6.66667C12.7782 6.66667 14.2667 8.15917 14.2667 10C14.2667 11.8417 12.7782 13.3333 10.9424 13.3333ZM16.2663 3.4625C15.6047 3.4625 15.0687 4 15.0687 4.6625C15.0687 5.325 15.6047 5.8625 16.2663 5.8625C16.927 5.8625 17.4622 5.325 17.4622 4.6625C17.4622 4 16.927 3.4625 16.2663 3.4625Z" fill="#908246"/>
</g>
<defs>
<clipPath id="clip0_71_107">
<rect width="19.946" height="20" fill="white" transform="translate(0.96936)"/>
</clipPath>
</defs>
</svg>
