<svg width="24" height="24" viewBox="0 0 21 20" fill="none" xmlns="http://www.w3.org/2000/svg">
<path d="M0.584106 20L1.99284 14.8642C1.12355 13.3608 0.666776 11.6567 0.667611 9.90917C0.670117 4.44583 5.12511 0 10.5989 0C13.2551 0.000833333 15.7486 1.03333 17.6241 2.90667C19.4988 4.78 20.5309 7.27 20.5301 9.91833C20.5276 15.3825 16.0726 19.8283 10.5989 19.8283C8.93711 19.8275 7.29958 19.4117 5.84909 18.6217L0.584106 20ZM6.09293 16.8275C7.49247 17.6567 8.82855 18.1533 10.5955 18.1542C15.1449 18.1542 18.8508 14.4592 18.8533 9.91667C18.855 5.365 15.1666 1.675 10.6022 1.67333C6.04951 1.67333 2.34606 5.36833 2.34439 9.91C2.34356 11.7642 2.88801 13.1525 3.80239 14.605L2.96817 17.645L6.09293 16.8275ZM15.6016 12.2742C15.5398 12.1708 15.3745 12.1092 15.1257 11.985C14.8777 11.8608 13.6576 11.2617 13.4297 11.1792C13.2025 11.0967 13.0372 11.055 12.871 11.3033C12.7057 11.5508 12.2297 12.1092 12.0852 12.2742C11.9408 12.4392 11.7955 12.46 11.5475 12.3358C11.2995 12.2117 10.4995 11.9508 9.5517 11.1067C8.81435 10.45 8.31583 9.63917 8.17137 9.39083C8.0269 9.14333 8.15634 9.00917 8.27992 8.88583C8.39182 8.775 8.52793 8.59667 8.65236 8.45167C8.77845 8.30833 8.81937 8.205 8.90287 8.03917C8.98554 7.87417 8.94462 7.72917 8.88199 7.605C8.81937 7.48167 8.32335 6.2625 8.11709 5.76667C7.91501 5.28417 7.71042 5.34917 7.55844 5.34167L7.08246 5.33333C6.91712 5.33333 6.64824 5.395 6.4211 5.64333C6.19397 5.89167 5.55265 6.49 5.55265 7.70917C5.55265 8.92833 6.44198 10.1058 6.56557 10.2708C6.68999 10.4358 8.315 12.9375 10.8043 14.01C11.3963 14.265 11.8589 14.4175 12.2189 14.5317C12.8134 14.72 13.3545 14.6933 13.7821 14.63C14.2589 14.5592 15.2501 14.0308 15.4572 13.4525C15.6643 12.8733 15.6643 12.3775 15.6016 12.2742Z" fill="#908246"/>
</svg>
